<svg xmlns="http://www.w3.org/2000/svg" viewBox="0 0 192 192" width="192" height="192">
  <defs>
    <linearGradient id="shieldGrad" x1="0%" y1="0%" x2="100%" y2="100%">
      <stop offset="0%" stop-color="#1e5530"/>
      <stop offset="100%" stop-color="#0f2d1a"/>
    </linearGradient>
    <linearGradient id="waveGrad" x1="0%" y1="0%" x2="100%" y2="0%">
      <stop offset="0%" stop-color="#6ec07f"/>
      <stop offset="100%" stop-color="#9dd9ab"/>
    </linearGradient>
  </defs>

  <!-- 방패형 배경 -->
  <path d="M96 12 L168 40 L168 100 Q168 148 96 178 Q24 148 24 100 L24 40 Z"
        fill="url(#shieldGrad)" />

  <!-- 방패 테두리 -->
  <path d="M96 20 L160 46 L160 100 Q160 143 96 170 Q32 143 32 100 L32 46 Z"
        fill="none" stroke="#4aa362" stroke-width="2" opacity="0.5"/>

  <!-- 심박 파형 (EKG) -->
  <polyline
    points="36,100 60,100 70,72 80,128 90,88 100,112 110,100 156,100"
    fill="none"
    stroke="url(#waveGrad)"
    stroke-width="6"
    stroke-linecap="round"
    stroke-linejoin="round"
  />

  <!-- 소형 하트 장식 (우상단) -->
  <path d="M140 52 C140 49 142 47 145 47 C148 47 150 49 150 52 C150 55 145 59 145 59 C145 59 140 55 140 52 Z"
        fill="#6ec07f" opacity="0.8"/>
</svg>
